<svg xmlns="http://www.w3.org/2000/svg" xmlns:xlink="http://www.w3.org/1999/xlink" viewBox="0 0 1366 5632.32"><defs><style>.cls-1{fill:url(#linear-gradient);}.cls-2{fill:url(#linear-gradient-3);}.cls-3{fill:none;}.cls-4{clip-path:url(#clip-path);}.cls-5{fill:#50c6df;}.cls-6{clip-path:url(#clip-path-2);}.cls-7{fill:#2e3092;}.cls-8{fill:#f78d36;}.cls-9{fill:#ffe381;}.cls-10{clip-path:url(#clip-path-3);}.cls-11{opacity:0.75;}.cls-12{clip-path:url(#clip-path-4);}.cls-13{clip-path:url(#clip-path-5);}.cls-14{mask:url(#mask);}.cls-15{fill:url(#linear-gradient-4);}.cls-16{fill:url(#linear-gradient-5);}.cls-17{clip-path:url(#clip-path-7);}.cls-18{clip-path:url(#clip-path-8);}.cls-19{clip-path:url(#clip-path-9);}.cls-20{mask:url(#mask-3);}.cls-21{fill:url(#linear-gradient-6);}</style><linearGradient id="linear-gradient" x1="-3015.13" y1="9035.85" x2="-3014.13" y2="9035.85" gradientTransform="matrix(0, 907.94, 907.94, 0, -8203593.94, 2740180.51)" gradientUnits="userSpaceOnUse"><stop offset="0" stop-color="#fff"/><stop offset="0.59" stop-color="#fff"/><stop offset="0.62" stop-color="#dcdcdc"/><stop offset="0.68" stop-color="#a3a3a3"/><stop offset="0.74" stop-color="#717171"/><stop offset="0.8" stop-color="#484848"/><stop offset="0.85" stop-color="#292929"/><stop offset="0.9" stop-color="#121212"/><stop offset="0.95" stop-color="#050505"/><stop offset="1"/></linearGradient><linearGradient id="linear-gradient-3" x1="-3013.15" y1="9034.08" x2="-3012.15" y2="9034.08" gradientTransform="matrix(1627.16, 0, 0, -1627.16, 4902820.75, 14704953.57)" gradientUnits="userSpaceOnUse"><stop offset="0"/><stop offset="0.02" stop-color="#111"/><stop offset="0.09" stop-color="#424242"/><stop offset="0.17" stop-color="#6f6f6f"/><stop offset="0.25" stop-color="#969696"/><stop offset="0.34" stop-color="#b7b7b7"/><stop offset="0.43" stop-color="#d1d1d1"/><stop offset="0.53" stop-color="#e6e6e6"/><stop offset="0.64" stop-color="#f4f4f4"/><stop offset="0.78" stop-color="#fcfcfc"/><stop offset="1" stop-color="#fff"/></linearGradient><clipPath id="clip-path"><rect class="cls-3" x="0.5" y="-0.5" width="1366" height="5642"/></clipPath><clipPath id="clip-path-2"><rect class="cls-3" x="0.02" width="1366" height="5641.43"/></clipPath><clipPath id="clip-path-3"><rect class="cls-3" x="0.02" y="-43.57" width="1366" height="5632"/></clipPath><clipPath id="clip-path-4"><rect class="cls-3" x="-249.21" y="2978.94" width="1637.22" height="294.71"/></clipPath><clipPath id="clip-path-5"><path class="cls-3" d="M-71,3057.43c467-233,726,127,1459,127v79c-697,0-895-315.61-1388-73.8s-109-113.25-71-132.2"/></clipPath><mask id="mask" x="-755.82" y="2009.94" width="2406.68" height="2235.99" maskUnits="userSpaceOnUse"><rect class="cls-1" x="-518.73" y="2394.85" width="1932.49" height="1466.18" transform="translate(-1504.01 642.82) rotate(-30)"/></mask><linearGradient id="linear-gradient-4" x1="-3015.13" y1="9035.85" x2="-3014.13" y2="9035.85" gradientTransform="matrix(0, 907.94, 907.94, 0, -8203594.09, 2740180.5)" gradientUnits="userSpaceOnUse"><stop offset="0" stop-color="#ffe381"/><stop offset="0.59" stop-color="#ffe381"/><stop offset="0.62" stop-color="#ffe68e"/><stop offset="0.7" stop-color="#ffefb7"/><stop offset="0.78" stop-color="#fff6d6"/><stop offset="0.86" stop-color="#fffbed"/><stop offset="0.93" stop-color="#fffefa"/><stop offset="1" stop-color="#fff"/></linearGradient><linearGradient id="linear-gradient-5" x1="-3015.13" y1="9035.85" x2="-3014.13" y2="9035.85" gradientTransform="matrix(0, 907.94, 907.94, 0, -8203594.09, 2740180.5)" gradientUnits="userSpaceOnUse"><stop offset="0" stop-color="#fff"/><stop offset="0.59" stop-color="#fff"/><stop offset="0.68" stop-color="#fffce8"/><stop offset="0.79" stop-color="#fefad2"/><stop offset="0.9" stop-color="#fef9c5"/><stop offset="1" stop-color="#fef8c0"/></linearGradient><clipPath id="clip-path-7"><rect class="cls-3" x="-239.15" y="3902.51" width="1627.16" height="345.34"/></clipPath><clipPath id="clip-path-8"><rect class="cls-3" x="-64.98" y="4795.93" width="1627.16" height="417.91"/></clipPath><clipPath id="clip-path-9"><path class="cls-3" d="M1394,4940.43s-402-170-530-64c0,0,3-140-15,8,0,0-114-219-28,32,0,0-137-123-30,8,0,0-108-60-2,23-221,117-261,266-854,164v79c704,127,895-315.61,1388-73.8s71-176.2,71-176.2"/></clipPath><mask id="mask-3" x="-64.98" y="4665.43" width="1881" height="693" maskUnits="userSpaceOnUse"><rect class="cls-2" x="-64.98" y="4665.43" width="1881" height="693"/></mask><linearGradient id="linear-gradient-6" x1="-3013.15" y1="9034.08" x2="-3012.15" y2="9034.08" gradientTransform="matrix(1627.16, 0, 0, -1627.16, 4902821.12, 14704954.67)" gradientUnits="userSpaceOnUse"><stop offset="0" stop-color="#2e3192"/><stop offset="0.14" stop-color="#2e3192"/><stop offset="1" stop-color="#2e3192"/></linearGradient></defs><title>dayofsite_background</title><g id="Layer_4" data-name="Layer 4"><g class="cls-4"><rect class="cls-5" x="0.02" y="-42.57" width="1366" height="5631"/><g class="cls-6"><path class="cls-7" d="M1366,866.25C420,636,991,986,0,831.08V-9H1366Z"/><path class="cls-8" d="M.26,3958c-.14,65.6-.24,106.4-.24,106.4H.68c-.1-40.15-.24-76.2-.42-106.4"/><path class="cls-8" d="M.33,4078.26c563.67-233,520.84,132.3,1365.67,132.3-.11-75.88-.92-824,0-1011.33-845,0-802-365.48-1366-132.18,1.46,167.16.78,778.4.31,1011.21"/><path class="cls-8" d="M1366,4064.37h0s0-2.13,0-6.17q0,3,0,6.17"/><path class="cls-9" d="M1366,4941.7c-914-.18-319,250.18-1366,250.16v441.26H1366Z"/></g><g class="cls-10"><g class="cls-11"><g class="cls-12"><g class="cls-13"><g class="cls-14"><rect class="cls-15" x="-518.73" y="2394.85" width="1932.49" height="1466.18" transform="translate(-1504.01 642.82) rotate(-30)"/></g></g><g class="cls-13"><g class="cls-14"><rect class="cls-16" x="-518.73" y="2394.85" width="1932.49" height="1466.18" transform="translate(-1504.01 642.82) rotate(-30)"/></g></g></g></g></g><g class="cls-11"><g class="cls-17"><path class="cls-7" d="M-71,4015.43s413-159,541-53c0,0-3-140,15,8,0,0,69-153,15,9,0,0,128-122,21,9,0,0,120-58,13,12,0,0,510,239,854,164v79c-697,0-895-315.61-1388-73.8s-71-154.2-71-154.2"/></g></g><g class="cls-11"><g class="cls-18"><g class="cls-19"><g class="cls-20"><rect class="cls-21" x="-64.98" y="4665.43" width="1881" height="693"/></g></g></g></g></g></g></svg>